# xmcd
#
# Track frame offsets: 
#        150
#        22752
#        45925
#        55333
#        72517
#        92152
#        112769
#        132771
#        148785
#        164072
#        184054
#        205015
#        215855
#        230968
#        249817
#        264750
#        279355
#        298946
#
# Disc length: 4348 seconds
#
# Revision: 0
# Processed by: cddbd v1.5.2PL0 Copyright (c) Steve Scherf et al.
# Submitted via: ExactAudioCopy v0.99pb5
#
DISCID=0b10fa12
DTITLE=Jeff and Maya Bohnhoff - Grated Hits
DYEAR=2020
DGENRE=Filk
TTITLE0=Baba McDonald's
TTITLE1=Our Meds are Cheaper
TTITLE2=DNA
TTITLE3=Landing Party
TTITLE4=Debbie Ohi
TTITLE5=I Am the Walmart
TTITLE6=Can't Get It Out of My Head
TTITLE7=The Ose
TTITLE8=Fill My Prescription
TTITLE9=Tom Servo
TTITLE10=Hey Blue
TTITLE11=Viva Mos Eisley
TTITLE12=Lust on the Bridge
TTITLE13=Tatooine
TTITLE14=My Wand Has Broken
TTITLE15=Ziggy Starbuck
TTITLE16=Wil's Song
TTITLE17=Midichlorian Rhapsody
EXTD=
EXTT0=
EXTT1=
EXTT2=
EXTT3=
EXTT4=
EXTT5=
EXTT6=
EXTT7=
EXTT8=
EXTT9=
EXTT10=
EXTT11=
EXTT12=
EXTT13=
EXTT14=
EXTT15=
EXTT16=
EXTT17=
PLAYORDER=
